<svg width="150" height="24" viewBox="0 0 150 24" fill="none" xmlns="http://www.w3.org/2000/svg">
<mask id="path-1-inside-1_1933_778" fill="white">
<path d="M120.419 9.29756L126.314 10.4754C129.946 11.1088 132.951 11.9569 135.493 12.499L138.964 13.2697L141.734 13.9875C143.369 14.3859 144.629 14.6552 145.591 14.8192C149.437 15.4981 148.52 14.4576 148.763 13.6589C149.006 12.8601 150.274 12.561 146.58 10.8481C145.658 10.4345 144.424 9.92521 142.79 9.30588L140.025 8.26328L136.525 7.23229C133.98 6.49192 130.862 5.54468 127.131 4.80254L121.079 3.51838C118.876 3.11133 116.542 2.79974 114.014 2.38776C102.156 0.674448 90.1613 0.0985236 78.1937 0.667841C65.2284 1.30597 52.3684 3.32698 39.8323 6.6965C29.8569 9.31957 20.1692 12.9348 10.9141 17.4882C8.13671 18.8194 5.43621 20.3055 2.82547 21.9396C0.959721 23.0743 -0.0126148 23.7807 0.0792583 23.9348C0.545704 24.8808 17.5029 15.7527 41.0353 10.7009C53.4107 7.95166 66.0231 6.40569 78.6962 6.08459C90.3557 5.80898 102.018 6.51638 113.558 8.1993L120.364 9.27725"/>
</mask>
<path d="M120.419 9.29756L126.314 10.4754C129.946 11.1088 132.951 11.9569 135.493 12.499L138.964 13.2697L141.734 13.9875C143.369 14.3859 144.629 14.6552 145.591 14.8192C149.437 15.4981 148.52 14.4576 148.763 13.6589C149.006 12.8601 150.274 12.561 146.58 10.8481C145.658 10.4345 144.424 9.92521 142.79 9.30588L140.025 8.26328L136.525 7.23229C133.98 6.49192 130.862 5.54468 127.131 4.80254L121.079 3.51838C118.876 3.11133 116.542 2.79974 114.014 2.38776C102.156 0.674448 90.1613 0.0985236 78.1937 0.667841C65.2284 1.30597 52.3684 3.32698 39.8323 6.6965C29.8569 9.31957 20.1692 12.9348 10.9141 17.4882C8.13671 18.8194 5.43621 20.3055 2.82547 21.9396C0.959721 23.0743 -0.0126148 23.7807 0.0792583 23.9348C0.545704 24.8808 17.5029 15.7527 41.0353 10.7009C53.4107 7.95166 66.0231 6.40569 78.6962 6.08459C90.3557 5.80898 102.018 6.51638 113.558 8.1993L120.364 9.27725" fill="white"/>
<path d="M126.314 10.4754L126.118 11.456L126.13 11.4584L126.142 11.4605L126.314 10.4754ZM135.493 12.499L135.71 11.5228L135.702 11.521L135.493 12.499ZM138.964 13.2697L139.215 12.3017L139.198 12.2973L139.181 12.2935L138.964 13.2697ZM141.734 13.9875L141.484 14.9555L141.491 14.9573L141.498 14.959L141.734 13.9875ZM145.591 14.8192L145.765 13.8344L145.759 13.8335L145.591 14.8192ZM146.58 10.8481L147.001 9.9408L146.989 9.93554L146.58 10.8481ZM142.79 9.30588L143.144 8.37076L143.143 8.37018L142.79 9.30588ZM140.025 8.26328L140.378 7.32759L140.343 7.31452L140.307 7.30405L140.025 8.26328ZM136.525 7.23229L136.808 6.27305L136.805 6.27208L136.525 7.23229ZM127.131 4.80254L126.924 5.78085L126.936 5.78333L127.131 4.80254ZM121.079 3.51838L121.286 2.54016L121.274 2.53742L121.261 2.53503L121.079 3.51838ZM114.014 2.38776L114.175 1.40078L114.166 1.39933L114.157 1.39804L114.014 2.38776ZM78.1937 0.667841L78.1462 -0.331031L78.1445 -0.33095L78.1937 0.667841ZM39.8323 6.6965L40.0866 7.66364L40.0919 7.66222L39.8323 6.6965ZM10.9141 17.4882L11.3464 18.39L11.3556 18.3855L10.9141 17.4882ZM2.82547 21.9396L3.34514 22.7941L3.35601 22.7872L2.82547 21.9396ZM0.0792583 23.9348L0.97615 23.4926L0.958549 23.4569L0.938168 23.4227L0.0792583 23.9348ZM41.0353 10.7009L41.2452 11.6787L41.2521 11.6771L41.0353 10.7009ZM78.6962 6.08459L78.6726 5.08487L78.6709 5.08492L78.6962 6.08459ZM113.558 8.1993L113.715 7.21153L113.703 7.20976L113.558 8.1993ZM120.223 10.2782L126.118 11.456L126.51 9.49479L120.615 8.31694L120.223 10.2782ZM126.142 11.4605C129.766 12.0924 132.647 12.9144 135.285 13.477L135.702 11.521C133.256 10.9993 130.127 10.1252 126.486 9.49027L126.142 11.4605ZM135.277 13.4753L138.748 14.2459L139.181 12.2935L135.71 11.5228L135.277 13.4753ZM138.714 14.2377L141.484 14.9555L141.985 13.0195L139.215 12.3017L138.714 14.2377ZM141.498 14.959C143.143 15.3602 144.428 15.6354 145.423 15.805L145.759 13.8335C144.829 13.6749 143.595 13.4116 141.971 13.0159L141.498 14.959ZM145.417 15.804C146.401 15.9777 147.145 16.054 147.707 16.0362C148.239 16.0193 148.811 15.9142 149.227 15.5089C149.665 15.0813 149.695 14.5425 149.705 14.3143C149.708 14.2507 149.709 14.186 149.71 14.1405C149.711 14.0898 149.712 14.0534 149.713 14.0207C149.717 13.9542 149.723 13.9404 149.72 13.9497L147.806 13.3681C147.696 13.7294 147.709 14.1672 147.707 14.231C147.7 14.4013 147.674 14.23 147.83 14.0774C147.963 13.9472 148.029 14.0249 147.643 14.0372C147.288 14.0485 146.704 14.0002 145.765 13.8345L145.417 15.804ZM149.72 13.9497C149.718 13.9543 149.723 13.9373 149.757 13.8784C149.774 13.8487 149.793 13.818 149.82 13.7731C149.845 13.7326 149.879 13.6772 149.913 13.6191C150.041 13.3946 150.284 12.9164 150.107 12.3142C149.952 11.7851 149.536 11.3962 149.092 11.0819C148.622 10.7479 147.944 10.3779 147.001 9.94088L146.16 11.7553C147.064 12.1747 147.613 12.4845 147.935 12.7132C148.286 12.9618 148.23 13.0188 148.189 12.8784C148.126 12.6649 148.238 12.5183 148.175 12.6281C148.16 12.6549 147.91 13.0255 147.806 13.3681L149.72 13.9497ZM146.989 9.93554C146.044 9.51179 144.792 8.99501 143.144 8.37076L142.435 10.241C144.057 10.8554 145.271 11.3572 146.171 11.7606L146.989 9.93554ZM143.143 8.37018L140.378 7.32759L139.672 9.19898L142.437 10.2416L143.143 8.37018ZM140.307 7.30405L136.808 6.27305L136.243 8.19152L139.742 9.22252L140.307 7.30405ZM136.805 6.27208C134.27 5.53502 131.109 4.57404 127.326 3.82176L126.936 5.78333C130.616 6.51531 133.689 7.44882 136.246 8.1925L136.805 6.27208ZM127.339 3.82432L121.286 2.54016L120.871 4.49661L126.924 5.78077L127.339 3.82432ZM121.261 2.53503C119.049 2.12641 116.659 1.80562 114.175 1.40078L113.853 3.37474C116.425 3.79386 118.703 4.09625 120.897 4.50174L121.261 2.53503ZM114.157 1.39804C102.236 -0.324387 90.1774 -0.903375 78.1462 -0.331029L78.2412 1.66671C90.1451 1.10042 102.076 1.67328 113.871 3.37748L114.157 1.39804ZM78.1445 -0.33095C65.1081 0.310676 52.1775 2.34278 39.5728 5.73078L40.0919 7.66222C52.5592 4.31119 65.3487 2.30126 78.2429 1.66663L78.1445 -0.33095ZM39.578 5.72938C29.5381 8.36942 19.7876 12.0081 10.4727 16.5909L11.3556 18.3855C20.5508 13.8616 30.1758 10.2697 40.0866 7.66362L39.578 5.72938ZM10.4819 16.5864C7.67073 17.9338 4.93741 19.438 2.29492 21.0919L3.35601 22.7872C5.93502 21.173 8.60268 19.705 11.3463 18.39L10.4819 16.5864ZM2.30584 21.0852C1.36576 21.6569 0.628663 22.134 0.13047 22.4959C-0.112737 22.6726 -0.332407 22.8458 -0.49401 23.0047C-0.568684 23.0782 -0.679094 23.1946 -0.766559 23.3427C-0.809596 23.4155 -1.10008 23.9096 -0.779652 24.447L0.938168 23.4227C1.23563 23.9216 0.955433 24.3599 0.955273 24.3601C0.910686 24.4356 0.875743 24.4627 0.908457 24.4306C0.961633 24.3783 1.08443 24.275 1.30604 24.114C1.73748 23.8005 2.41942 23.357 3.34509 22.794L2.30584 21.0852ZM-0.817633 24.3771C-0.615408 24.7872 -0.245164 24.9264 -0.04569 24.9707C0.153109 25.0148 0.338313 25.0049 0.460655 24.9923C0.715685 24.9658 1.00858 24.8902 1.29935 24.8015C1.89763 24.6192 2.72541 24.3061 3.73457 23.9062C5.78512 23.0936 8.64766 21.8977 12.2677 20.4999C19.4804 17.7149 29.5492 14.1895 41.2452 11.6787L40.8254 9.72322C28.9889 12.2642 18.8129 15.8287 11.5473 18.6342C7.92826 20.0316 4.99327 21.2561 2.99777 22.0469C1.98391 22.4486 1.22654 22.7329 0.716274 22.8884C0.452769 22.9687 0.31054 22.9971 0.254438 23.0029C0.221215 23.0064 0.281851 22.9947 0.387685 23.0182C0.494195 23.0418 0.803078 23.1416 0.97615 23.4926L-0.817633 24.3771ZM41.2521 11.6771C53.5647 8.94184 66.1129 7.40374 78.7215 7.08427L78.6709 5.08492C65.9333 5.40764 53.2568 6.96148 40.8184 9.72474L41.2521 11.6771ZM78.7198 7.08432C90.3232 6.81003 101.929 7.51402 113.414 9.18883L113.703 7.20976C102.106 5.51874 90.3882 4.80794 78.6726 5.08487L78.7198 7.08432ZM113.402 9.18698L120.208 10.2649L120.521 8.28956L113.715 7.21161L113.402 9.18698Z" fill="#AE152D" mask="url(#path-1-inside-1_1933_778)"/>
</svg>
